<svg id="Capa_1" enable-background="new 0 0 512 512" height="512" viewBox="0 0 512 512" width="512" xmlns="http://www.w3.org/2000/svg"><g><path d="m489.5 18.162c-12.407 0-22.5 10.093-22.5 22.5v42.112c-62.645-1.277-86.515-18.601-109.619-35.379-20.21-14.677-41.108-29.853-84.889-32.83-6.02-.41-11.999 1.663-16.492 5.687-4.494-4.023-10.473-6.095-16.492-5.687-43.781 2.977-64.679 18.153-84.889 32.83-23.104 16.778-46.972 34.103-109.619 35.38v-42.113c0-12.407-10.093-22.5-22.5-22.5s-22.5 10.093-22.5 22.5v434.324c0 12.407 10.093 22.5 22.5 22.5s22.5-10.093 22.5-22.5v-42.191h13.176c4.142 0 7.5-3.358 7.5-7.5s-3.358-7.5-7.5-7.5h-13.176v-320.018c67.613-1.346 94.563-20.91 118.433-38.245 19.345-14.048 37.616-27.317 77.092-30.001 2.07-.143 4.06.567 5.587 1.994 1.54 1.438 2.388 3.39 2.388 5.494v289.066c0 4.142 3.358 7.5 7.5 7.5s7.5-3.358 7.5-7.5v-289.066c0-2.104.848-4.056 2.388-5.494 1.527-1.427 3.513-2.141 5.587-1.994 39.476 2.684 57.748 15.953 77.092 30.001 23.87 17.335 50.82 36.898 118.433 38.245v189.105c0 4.142 3.358 7.5 7.5 7.5s7.5-3.358 7.5-7.5v-246.22c0-4.136 3.364-7.5 7.5-7.5s7.5 3.364 7.5 7.5v434.324c0 4.136-3.364 7.5-7.5 7.5s-7.5-3.364-7.5-7.5v-158.104c0-4.142-3.358-7.5-7.5-7.5s-7.5 3.358-7.5 7.5v100.913h-196c-4.136 0-7.5-3.364-7.5-7.5v-54.208c0-4.142-3.358-7.5-7.5-7.5s-7.5 3.358-7.5 7.5v54.208c0 4.136-3.364 7.5-7.5 7.5h-152.824c-4.142 0-7.5 3.358-7.5 7.5s3.358 7.5 7.5 7.5h152.824c5.758 0 11.011-2.181 14.995-5.752 3.984 3.573 9.244 5.752 15.005 5.752h196v42.191c0 12.407 10.093 22.5 22.5 22.5s22.5-10.093 22.5-22.5v-434.324c0-12.407-10.093-22.5-22.5-22.5zm-459.5 456.824c0 4.136-3.364 7.5-7.5 7.5s-7.5-3.364-7.5-7.5v-434.324c0-4.136 3.364-7.5 7.5-7.5s7.5 3.364 7.5 7.5z"/><path d="m437 302.383c8.271 0 15-6.729 15-15v-161.442c0-7.67-5.74-14.079-13.352-14.907-52.568-5.722-77.18-23.595-98.9-39.369-13.21-9.593-24.619-17.878-42.245-22.832-4.53-1.273-9.286-.369-13.048 2.48-3.784 2.867-5.955 7.233-5.955 11.977v224.092c0 8.271 6.729 15 15 15h143.5zm-143.5-14.991-.011-44.787h143.511v44.777zm-.015-59.787-.011-44.777h143.526v44.777zm143.515-59.777h-143.53l-.011-44.777h123.823c6.157 1.153 12.713 2.128 19.718 2.89zm-106.061-84.021c10.79 7.836 22.881 16.605 39.009 24.245h-76.493l-.011-44.777c15.042 4.226 24.948 11.42 37.495 20.532z"/><path d="m278.5 365.294c0 20.678 16.822 37.5 37.5 37.5h98.5c20.678 0 37.5-16.822 37.5-37.5v-10.412c0-20.678-16.822-37.5-37.5-37.5h-98.5c-20.678 0-37.5 16.822-37.5 37.5zm15-10.411c0-12.407 10.093-22.5 22.5-22.5h98.5c12.407 0 22.5 10.093 22.5 22.5v10.412c0 12.407-10.093 22.5-22.5 22.5h-98.5c-12.407 0-22.5-10.093-22.5-22.5z"/><path d="m218.5 302.383c8.271 0 15-6.729 15-15v-224.092c0-4.744-2.17-9.11-5.955-11.977-3.761-2.85-8.517-3.754-13.048-2.48-17.626 4.954-29.035 13.239-42.25 22.836-21.715 15.77-46.327 33.643-98.895 39.365-7.612.828-13.352 7.236-13.352 14.906v161.441c0 8.271 6.729 15 15 15h143.5zm-143.5-15-.007-44.777h143.507v44.777zm106.066-203.58c12.542-9.107 22.447-16.301 37.434-20.512v44.76h-76.45c16.132-7.64 28.224-16.411 39.016-24.248zm-86.347 39.248h123.781v44.777h-16.147c-4.142 0-7.5 3.358-7.5 7.5s3.358 7.5 7.5 7.5h16.147v44.777h-143.509l-.007-44.777h97.369c4.142 0 7.5-3.358 7.5-7.5s-3.358-7.5-7.5-7.5h-97.371l-.006-41.882c7.014-.763 13.579-1.74 19.743-2.895z"/><path d="m60 365.294c0 20.678 16.822 37.5 37.5 37.5h98.5c20.678 0 37.5-16.822 37.5-37.5v-10.412c0-20.678-16.822-37.5-37.5-37.5h-98.5c-20.678 0-37.5 16.822-37.5 37.5zm15-10.411c0-12.407 10.093-22.5 22.5-22.5h98.5c12.407 0 22.5 10.093 22.5 22.5v10.412c0 12.407-10.093 22.5-22.5 22.5h-98.5c-12.407 0-22.5-10.093-22.5-22.5z"/></g></svg>