<svg id="Capa_1" enable-background="new 0 0 512.355 512.355" height="512" viewBox="0 0 512.355 512.355" width="512" xmlns="http://www.w3.org/2000/svg"><g><path d="m307.449 297.205c-2.566-1.269-5.503-.935-7.68.615-7.369-6.779-21.451-15.993-43.592-15.993-22.138 0-36.22 9.214-43.591 15.995-2.178-1.55-5.116-1.885-7.68-.617-3.713 1.836-5.234 6.335-3.398 10.048 3.946 7.979 16.689 16.233 31.182 16.233h46.973c14.493 0 27.236-8.254 31.183-16.233 1.837-3.713.316-8.212-3.397-10.048zm-27.785 11.281h-46.973c-2.907 0-5.626-.529-8.031-1.333 5.758-4.664 15.951-10.326 31.517-10.326 15.579 0 25.773 5.67 31.521 10.324-2.404.806-5.125 1.335-8.034 1.335z"/><path d="m281.49 336.758c-9.936 6.889-40.689 6.889-50.625 0-3.406-2.362-8.077-1.514-10.437 1.89s-1.514 8.077 1.89 10.437c7.595 5.266 20.727 7.898 33.859 7.898 13.133 0 26.265-2.633 33.859-7.898 3.404-2.359 4.25-7.032 1.89-10.437-2.359-3.403-7.031-4.252-10.436-1.89z"/><path d="m215.763 229.679c-7.167 9.193-7.471 20.599-.774 29.056 6.178 7.802 16.315 10.908 25.582 8.152 5.133 1.803 10.37 2.704 15.607 2.704 5.236 0 10.473-.901 15.606-2.704 9.267 2.76 19.404-.351 25.583-8.152 6.695-8.457 6.392-19.862-.774-29.056-16.153-20.721-24.618-30.682-40.415-30.682-15.796 0-24.262 9.961-40.415 30.682zm40.415-15.682c7.714 0 12.256 3.957 28.585 24.904 2.936 3.765 3.235 7.502.844 10.521-2.185 2.76-6.578 4.55-10.742 2.636-1.909-.879-4.099-.915-6.035-.101-8.278 3.475-17.027 3.475-25.303 0-.929-.391-1.917-.585-2.903-.585-1.07 0-2.139.229-3.132.686-4.166 1.913-8.558.123-10.742-2.636-2.391-3.02-2.091-6.756.845-10.521 16.327-20.947 20.869-24.904 28.583-24.904z"/><path d="m451.022 420.916-109.969-34.919v-43.162c18.155-20.029 33-42.201 40.231-73.489 6.235-.939 14.445-5.08 21.4-14.456 8.871-11.96 13.369-29.064 13.369-50.838 0-31.512-13.292-42.693-24.675-42.693-1.921 0-3.692.261-5.325.714v-90.098c0-24.91-20.052-45.225-44.862-45.648-8.037-14.229-23.119-23.168-39.745-23.168-6.927 0-13.708 1.564-19.883 4.559-7.477-5.007-16.316-7.718-25.385-7.718s-17.908 2.711-25.385 7.718c-6.175-2.995-12.956-4.56-19.883-4.56-16.627 0-31.708 8.939-39.745 23.168-24.811.424-44.863 20.738-44.863 45.648v90.101c-1.634-.453-3.404-.717-5.325-.717-11.383 0-24.675 11.182-24.675 42.693 0 21.773 4.498 38.878 13.37 50.838 6.955 9.376 15.165 13.516 21.399 14.456 7.231 31.288 22.076 53.459 40.231 73.488v43.163l-109.969 34.92c-36.579 11.616-61.155 45.205-61.155 83.584 0 4.143 3.358 7.5 7.5 7.5s7.5-3.357 7.5-7.5c0-31.814 20.373-59.658 50.695-69.287l9.718-3.086v72.373c0 4.143 3.358 7.5 7.5 7.5s7.5-3.357 7.5-7.5v-77.136l62.24-19.764c1.624 43.598 13.419 76.26 36.818 102.271 1.481 1.646 3.525 2.484 5.578 2.484 1.787 0 3.581-.635 5.014-1.924 3.079-2.771 3.33-7.513.56-10.592-21.637-24.052-32.201-54.941-33.102-96.961l13.373-4.246c3.114-.989 5.23-3.881 5.23-7.148v-33.088c.903.893 1.807 1.785 2.719 2.678 9.602 9.402 19.227 16.525 29.162 21.516l13.36 15.8c-8.902-3.182-16.266-5.442-19.222-5.442-14.196 0-24.901 17.689-24.901 41.147 0 23.457 10.705 41.146 24.901 41.146 4.737 0 20.785-5.801 36.358-11.903v41.162c0 4.143 3.358 7.5 7.5 7.5 4.143 0 7.5-3.357 7.5-7.5v-41.16c15.573 6.102 31.618 11.902 36.355 11.902 14.196 0 24.901-17.689 24.901-41.146 0-23.458-10.705-41.147-24.901-41.147-2.957 0-10.32 2.26-19.222 5.442l13.359-15.798c9.937-4.991 19.563-12.115 29.166-21.518.911-.892 1.815-1.784 2.718-2.677v33.087c0 3.268 2.115 6.159 5.23 7.148l13.359 4.242c-.903 42.015-11.454 72.915-33.089 96.965-2.77 3.079-2.52 7.821.561 10.592 1.433 1.289 3.226 1.924 5.014 1.924 2.052 0 4.097-.838 5.578-2.484 23.399-26.011 35.194-58.673 36.818-102.271l62.24 19.764v77.135c0 4.143 3.357 7.5 7.5 7.5s7.5-3.357 7.5-7.5v-72.373l9.719 3.086c30.321 9.629 50.694 37.474 50.694 69.287 0 4.143 3.357 7.5 7.5 7.5s7.5-3.357 7.5-7.5c-.001-38.378-24.577-71.968-61.157-83.584zm-339.721-216.863c0-19.102 5.658-27.693 9.675-27.693 2.89 0 4.616 2.69 5.325 4.109v43.678c0 10.102.612 19.423 1.732 28.114-6.939-4.685-16.732-17.605-16.732-48.208zm188.892 203.902c3.523.295 9.741 10.166 9.741 26.141s-6.218 25.845-9.741 26.14c-4.159-.609-24.483-8.155-41.209-14.908-.901-.363-1.854-.545-2.808-.545s-1.907.182-2.808.545c-16.726 6.753-37.05 14.298-41.209 14.908-3.522-.295-9.741-10.165-9.741-26.14s6.218-25.846 9.741-26.141c4.159.61 24.484 8.155 41.21 14.908 1.801.727 3.814.728 5.615-.001 16.725-6.752 37.049-14.297 41.209-14.907zm-55.407-17.133c3.725.486 7.518.728 11.392.728 3.873 0 7.666-.241 11.39-.728l-11.391 13.471zm68.056-40.466c-23.71 23.216-42.737 26.193-56.664 26.193s-32.955-2.978-56.664-26.192c-32.983-32.297-58.213-62.097-58.213-126.211v-74.134l26.89-58.126h119.489c4.143 0 7.5-3.357 7.5-7.5s-3.357-7.5-7.5-7.5h-124.283c-2.923 0-5.58 1.698-6.807 4.351l-15.289 33.049v-42.311c0-16.903 13.752-30.655 30.655-30.655.996 0 2.021.051 3.045.151 3.262.326 6.368-1.523 7.644-4.551 4.804-11.397 15.898-18.762 28.264-18.762 5.85 0 11.543 1.661 16.465 4.805 2.783 1.779 6.4 1.525 8.909-.618 5.543-4.737 12.609-7.345 19.895-7.345 7.287 0 14.352 2.608 19.895 7.345 2.51 2.143 6.126 2.396 8.909.618 4.922-3.144 10.615-4.805 16.465-4.805 12.365 0 23.46 7.364 28.264 18.762 1.276 3.027 4.361 4.883 7.645 4.551 1.024-.101 2.048-.151 3.044-.151 16.903 0 30.655 13.752 30.655 30.655v42.312l-15.289-33.049c-1.227-2.652-3.884-4.351-6.807-4.351h-31.279c-4.143 0-7.5 3.357-7.5 7.5s3.357 7.5 7.5 7.5h26.484l26.89 58.125v36.485c0 4.143 3.357 7.5 7.5 7.5s7.5-3.357 7.5-7.5v-6.017c.728-1.459 2.449-4.121 5.325-4.121 4.018 0 9.675 8.592 9.675 27.693 0 30.603-9.792 43.523-16.732 48.208 1.121-8.692 1.732-18.012 1.732-28.114v-7.649c0-4.143-3.357-7.5-7.5-7.5s-7.5 3.357-7.5 7.5v7.649c0 64.114-25.23 93.915-58.212 126.21z"/><path d="m207.869 211.205c4.142 0 7.5-3.357 7.5-7.5v-16.757c0-4.143-3.358-7.5-7.5-7.5s-7.5 3.357-7.5 7.5v16.757c0 4.143 3.358 7.5 7.5 7.5z"/><path d="m304.486 179.448c-4.143 0-7.5 3.357-7.5 7.5v16.757c0 4.143 3.357 7.5 7.5 7.5s7.5-3.357 7.5-7.5v-16.757c0-4.142-3.357-7.5-7.5-7.5z"/><path d="m222.266 157.598c1.314.928 2.824 1.374 4.319 1.374 2.354-.001 4.672-1.106 6.133-3.176 2.389-3.384 1.583-8.063-1.801-10.452-28.02-19.781-55.318-.801-56.466.018-3.374 2.402-4.162 7.085-1.759 10.46 2.402 3.374 7.085 4.161 10.459 1.759.195-.139 19.687-13.699 39.115.017z"/><path d="m337.904 145.361c-1.148-.818-28.447-19.801-56.466-.018-3.384 2.389-4.19 7.068-1.802 10.452 1.461 2.07 3.779 3.176 6.134 3.176 1.494 0 3.005-.446 4.318-1.374 19.179-13.538 38.268-.606 39.141.001 3.372 2.379 8.036 1.588 10.434-1.777 2.402-3.375 1.615-8.057-1.759-10.46z"/></g></svg>