<svg id="Capa_1" enable-background="new 0 0 512.008 512.008" height="512" viewBox="0 0 512.008 512.008" width="512" xmlns="http://www.w3.org/2000/svg"><g><path d="m486.623 144.721c-1.8-3.731-6.287-5.295-10.015-3.495-3.73 1.801-5.295 6.284-3.495 10.015 44.481 92.178 25.714 202.763-46.701 275.176-45.519 45.52-106.039 70.588-170.412 70.588-64.374 0-124.894-25.068-170.413-70.588-45.519-45.519-70.587-106.04-70.587-170.413s25.068-124.894 70.587-170.412c45.519-45.52 106.039-70.588 170.413-70.588 64.373 0 124.894 25.068 170.413 70.588 11.622 11.621 22.058 24.409 31.019 38.011 2.279 3.459 6.932 4.416 10.389 2.137 3.459-2.278 4.416-6.93 2.137-10.389-9.518-14.447-20.6-28.028-32.938-40.366-48.353-48.352-112.64-74.981-181.02-74.981s-132.667 26.629-181.019 74.98c-48.352 48.353-74.981 112.64-74.981 181.02s26.629 132.667 74.981 181.02c48.352 48.352 112.639 74.98 181.019 74.98s132.667-26.629 181.02-74.98c76.918-76.919 96.853-194.387 49.603-292.303z"/><path d="m55.13 320.705c-1.267-3.942-5.487-6.112-9.435-4.847-3.943 1.267-6.114 5.491-4.847 9.435 9.409 29.288 24.469 55.925 44.761 79.17 1.366 1.564 3.32 2.493 5.396 2.563.085.003.169.004.254.004 1.986 0 3.895-.788 5.303-2.196l308.268-308.266c1.469-1.47 2.263-3.481 2.192-5.558s-.999-4.03-2.563-5.396c-43.079-37.606-98.378-57.312-155.711-55.487-57.603 1.833-111.781 25.298-152.554 66.07-51.91 51.91-75.406 126.143-62.852 198.572.707 4.081 4.592 6.817 8.67 6.108 4.082-.707 6.816-4.589 6.109-8.671-11.722-67.628 10.215-136.937 58.679-185.401 76.274-76.275 198.463-82.27 281.639-15.061l-46.267 46.267c-32.761-40.546-52.932-40.719-72.424-40.719-.082 0-.164 0-.246 0h-73.936c-14.738 0-27.22 11.526-28.417 26.24-1.028 12.631-2.271 23.491-3.8 33.085h-42.407c-21.341 0-35.131 13.45-35.131 34.267 0 9.098 2.635 16.787 7.382 22.563-11.611 5.194-18.53 16.232-18.53 30.97 0 14.81 6.828 25.731 18.576 30.915-4.776 5.782-7.428 13.492-7.428 22.619 0 16.485 8.654 28.342 22.852 32.566-3.976 5.568-6.168 12.681-6.168 20.967 0 7.847 2.013 14.864 5.758 20.447l-16.515 16.515c-16.346-20.205-28.646-42.957-36.608-67.741zm137.068-49.539c7.385-5.977 11.612-15.232 11.612-26.749 0-8.625-2.374-15.981-6.666-21.644 7.317-2.937 14.471-8.714 20.309-18.151 1.266-2.047 2.462-4.441 3.58-7.071 5.87 14.483 13.498 27.656 22.596 39.004l-43.85 43.85c-1.911-3.622-4.465-6.725-7.581-9.239zm-10.099-146.417c.568-6.985 6.484-12.457 13.467-12.457h73.937.222c17.592 0 32.966.157 61.781 36.385l-77.21 77.21c-11.614-14.885-20.489-33.25-25.908-53.648 1.715-8.721 2.662-17.043 2.662-22.749 0-4.143-3.358-7.5-7.5-7.5s-7.5 3.357-7.5 7.5c0 12.731-5.346 37.526-11.354 47.24-8.024 12.971-19.014 15.393-26.347 12.032-5.315-2.435-10.38-8.903-7.163-19.125 5.253-16.685 8.618-36.697 10.913-64.888zm-61.158 46.868h39.551c-1.089 4.814-2.286 9.298-3.614 13.518-2.828 8.983-1.941 17.875 1.967 25.016h-37.905c-16.639 0-20.131-10.478-20.131-19.267s3.494-19.267 20.132-19.267zm-11.148 53.534h58.885c16.639 0 20.131 10.478 20.131 19.267s-3.493 19.267-20.131 19.267h-58.818c-13.401-.252-20.198-6.733-20.198-19.267 0-8.79 3.493-19.267 20.131-19.267zm-8.983 72.799c0-8.789 3.493-19.267 20.131-19.267h47.737c11.002 0 17.537 4.487 19.499 13.323l-25.211 25.211h-42.025c-16.638 0-20.131-10.478-20.131-19.267zm16.685 53.534c0-8.789 3.493-19.267 20.131-19.267h10.341l-28.717 28.717c-1.375-3.186-1.755-6.639-1.755-9.45z"/><path d="m107.541 426.395c41.249 36.009 93.692 55.604 148.406 55.604 2.428 0 4.869-.039 7.305-.116 57.604-1.834 111.781-25.299 152.555-66.071 40.772-40.773 64.237-94.951 66.071-152.554 1.825-57.333-17.881-112.633-55.487-155.712-1.366-1.564-3.32-2.493-5.396-2.563-2.065-.073-4.088.725-5.558 2.192l-308.267 308.266c-1.469 1.47-2.263 3.481-2.192 5.558s.998 4.029 2.563 5.396zm312.719-302.83c20.951 25.928 34.786 55.648 41.598 86.586h-20.387c-4.143 0-7.5 3.357-7.5 7.5s3.357 7.5 7.5 7.5h23.123c6.483 44.476-1.23 90.576-22.871 130.903h-64.185c-1.723 0-3.34.588-4.629 1.599-5.158 2.776-53.986 24.063-92.913 24.063-22.136 0-45.709-2.947-68.542-5.831 5.784-5.937 9.04-14.298 9.04-24.401 0-8.439-2.295-15.848-6.562-21.591l63.716-63.716c14.482 8.309 29.927 12.635 45.221 12.635 1.587 0 3.173-.047 4.756-.14 4.135-.244 7.289-3.794 7.046-7.929-.244-4.134-3.784-7.269-7.929-7.046-12.675.753-25.663-2.204-38.042-8.572l68.97-68.97c4.476 7.088 9.138 14.762 13.925 22.929 5.809 9.911 16.558 16.067 28.054 16.067h11.822c4.143 0 7.5-3.357 7.5-7.5s-3.357-7.5-7.5-7.5h-11.822c-6.194 0-11.984-3.315-15.112-8.651-5.519-9.417-10.883-18.199-16-26.211zm-217.159 217.158c1.89 3.505 2.393 7.518 2.393 10.76 0 8.789-3.493 19.267-20.131 19.267h-12.289zm-45.226 45.226c13.991.055 31.911 2.317 50.878 4.714 22.451 2.838 47.898 6.054 71.243 6.054 23.311 0 49.263-6.935 66.929-12.751 8.313-2.738 16.876-5.927 24.111-8.979 3.955-1.668 6.703-2.888 8.65-3.933h53.172c-7.865 12.114-17.084 23.574-27.659 34.149-40.936 40.937-95.086 61.629-149.344 61.626-46.839-.002-93.76-15.427-132.295-46.565z"/></g></svg>